<svg xmlns="http://www.w3.org/2000/svg" viewBox="0 0 193.88 223.71"><defs><style>.cls-1{fill:#208759;}</style></defs><g id="Livello_2" data-name="Livello 2"><g id="Livello_1-2" data-name="Livello 1"><path class="cls-1" d="M193.85,155.07a9.29,9.29,0,0,0-.53-3.26,6.23,6.23,0,0,0-.58-3.7,4.67,4.67,0,0,0-.62-3.08c-.07-.6-.13-1.19-.2-1.79,0-.25-.19-.4-.41-.34s-.43.13-.49.26a9.09,9.09,0,0,0-.29,1.17h0a1.34,1.34,0,0,0-.58,1.29,104.67,104.67,0,0,1-1.16,2.5h0a1.28,1.28,0,0,0-.61,1.22v0a1.33,1.33,0,0,0-.62,1.21h0a1.36,1.36,0,0,0-.65,1.22l-5.68,9.07a.81.81,0,0,0-.55.74l-5.52,6.73a.73.73,0,0,0-.61.65.69.69,0,0,0-.59.63l.59-.63h0l.6-.64h0a2.44,2.44,0,0,1-.6.64c-.18.23-.41.41-.59.63a59,59,0,0,0-5.71,5.47l-7.94,6.14a.78.78,0,0,0-.74.47,1.54,1.54,0,0,0-1.17.78,45.22,45.22,0,0,0-6.24,3.65c-.65.26-1.32.47-1.94.78a91.68,91.68,0,0,1-8.89,3.8c-.74.27-1.6.31-2.18,1h0a11.08,11.08,0,0,0-1.51.26A84.31,84.31,0,0,1,107,195.52c-1.33-.08-2.67-.08-4-.11-1.33-.63-2.81-.5-4.21-.75a84.85,84.85,0,0,1-37.66-16.31c-.65-.49-1.35-.9-2-1.36a13.27,13.27,0,0,0-1-1.09,84.74,84.74,0,0,1-12.67-13.22,11.87,11.87,0,0,0-1-1.09l-6.25-9.79h0a1.35,1.35,0,0,0-.66-1.23q-2.05-4.63-4.13-9.26h0Q32,137,30.63,132.77h0l-1.83-9.21h0a25,25,0,0,0-.33-4.58c-.37-3.77-.58-3.38,2.91-3.4,2,0,4.12.26,6.1-.51,1.46-.09,3,0,4.32-.71a3.45,3.45,0,0,0,2.54-.55,8.88,8.88,0,0,0,4.29-1.23,2.21,2.21,0,0,0,1.87-.66,15.47,15.47,0,0,0,5.56-2.39,1.37,1.37,0,0,0,1.27-.63,1.32,1.32,0,0,0,1.22-.66,26,26,0,0,0,6.83-4.12,1.49,1.49,0,0,0,1.17-.82.72.72,0,0,0,.74-.53,40.85,40.85,0,0,0,8-6,45.81,45.81,0,0,0,7.41-6.2A18.83,18.83,0,0,0,87,86.85a.86.86,0,0,0,.74-.65h0a53.25,53.25,0,0,0,6.71-5.45l8.66-6.12,6.76-3.75a1.54,1.54,0,0,0,1.33-.64h0L121,67.07a5.55,5.55,0,0,0,3.16-.55h0l8-.17c.06,0,.14-.1.19-.17a1.75,1.75,0,0,0,.13-.28c-2.74-4.9-11.06-7.74-17-6.31l-.59.06a6.34,6.34,0,0,0-3.78.61,29.63,29.63,0,0,0-9.84,3.08,1.43,1.43,0,0,0-1.37.57,27.23,27.23,0,0,0-7.52,3.63h0A47.86,47.86,0,0,0,82,73.81h0a.72.72,0,0,0-.72.49,1.32,1.32,0,0,0-1.07.76l0,0c-.24.17-.45.38-.71.53A8.09,8.09,0,0,0,76.36,78a1,1,0,0,0-.82.65h0a18,18,0,0,0-4.2,3.57,3.19,3.19,0,0,0-1.71,1.42,57.68,57.68,0,0,0-6.87,5.5l-8,5.47a1.35,1.35,0,0,0-1.21.7l-7.44,3.59a2.38,2.38,0,0,0-1.85.66,2.47,2.47,0,0,0-2,.62,15.75,15.75,0,0,0-1.81.25,34.86,34.86,0,0,1-11.6.92H29c.06-.7.08-1.4.18-2.1.31-2.08.65-4.17,1-6.25A38.12,38.12,0,0,0,32,86.27a39.58,39.58,0,0,0,2.51-6.74,11.18,11.18,0,0,0,1.76-3.88,1.37,1.37,0,0,0,.6-1.23h0a31.91,31.91,0,0,0,3.08-5.58,1.31,1.31,0,0,0,.68-1.14,53.77,53.77,0,0,0,4.28-6.2,40.88,40.88,0,0,0,4.38-5.35.9.9,0,0,0,.64-.71l6.15-6.08a.86.86,0,0,0,.69-.62.79.79,0,0,0,.66-.6l7.3-5.56h0a3.18,3.18,0,0,0,1.88-1.26,24.91,24.91,0,0,0,5-2.93,1.63,1.63,0,0,0,1.25-.71A1.44,1.44,0,0,0,74,37h0l8.6-3.79a1.33,1.33,0,0,0,1.29-.49,2.3,2.3,0,0,0,1.85-.65h0L95,29.61a5.32,5.32,0,0,0,3.13-.6h0c2.42-.23,4.83-.51,7.26-.68,3.13-.23,6.27-.36,9.41-.53a1.05,1.05,0,0,0,1,0,21.66,21.66,0,0,0,6.42.52l1.06.09a7.93,7.93,0,0,0,3.91.59h0l.16.12.19-.08a4.08,4.08,0,0,0,2.73.55l.18.13.2-.07a2.6,2.6,0,0,0,2.08.51l.22.13.26,0a2.45,2.45,0,0,0,2,.54h0l.19.14.22-.05a2.7,2.7,0,0,0,2,.6,2.27,2.27,0,0,0,1.86.6,2.32,2.32,0,0,0,1.84.63,1.33,1.33,0,0,0,1.26.5h0l.2.14.24,0a1.57,1.57,0,0,0,1.42.57,1.31,1.31,0,0,0,1.24.54l.17.15.23,0a1.77,1.77,0,0,0,1.44.64c.61.36,1.19.76,1.83,1.07a83.89,83.89,0,0,1,13.38,8,14,14,0,0,0,1.31.76h0c.06.37.13.74.2,1.1a7.74,7.74,0,0,0-.67,3.67,47.73,47.73,0,0,0-1.88,7.35h0a2.29,2.29,0,0,0-.61,1.87,43.41,43.41,0,0,0-2.57,6.73h0l-4.3,8.6q-2.83,4.29-5.68,8.58l-6.2,7.35h0l-8.67,8h0c-3.12,2.09-6.23,4.16-9.34,6.26a12.69,12.69,0,0,0-2.78,1.79,1.38,1.38,0,0,0-1.21.65h0a1.36,1.36,0,0,0-1.21.62c-2.24,1-4.47,1.92-6.72,2.86-1.68.7-3.38,1.36-5.07,2a12.06,12.06,0,0,0-1.48.27c-3.38,1.07-6.84,1.82-10.31,2.55-1.28.26-2.65.08-3.84.78h0c-1.22.05-2.44.06-3.66.18a72.22,72.22,0,0,1-10.4.34c-2.44-.12-4.88-.34-7.32-.52a3.39,3.39,0,0,0-2.25-.52.7.7,0,0,0-.49.22c-.19.31,0,.57.23.78a2.35,2.35,0,0,0,.49.29,9,9,0,0,0,2.54,2.41,2,2,0,0,0,.3.52,53.25,53.25,0,0,0,21.07,12.81,42.67,42.67,0,0,0,17.6,2c1.77.06,3.56.24,5.24-.55h0a1,1,0,0,0,1-.1,14,14,0,0,0,5.56-1.2,2.2,2.2,0,0,0,1.9-.54,2.25,2.25,0,0,0,1.87-.58,2.32,2.32,0,0,0,1.84-.64,2.24,2.24,0,0,0,1.83-.68,40.66,40.66,0,0,0,11.14-5.47,42.62,42.62,0,0,0,9.89-6.77.78.78,0,0,0,.71-.58h0a19.91,19.91,0,0,0,4.91-4.14,10.21,10.21,0,0,0,2.56-2.16,109.65,109.65,0,0,0,9.69-10.64,10.49,10.49,0,0,0,1.92-2.74,25.5,25.5,0,0,0,4.34-6.11h0a34.82,34.82,0,0,0,4.92-8.06A43.08,43.08,0,0,0,184,73.77a28.56,28.56,0,0,0,3.12-7.91,17.59,17.59,0,0,0,1.91-6,23,23,0,0,0,1.86-7.41h0a5,5,0,0,0,.6-3.1h0a31.71,31.71,0,0,0,1.24-9.83h0c.64-1.35.34-2.81.48-4.21a3.06,3.06,0,0,0-1.13-2.7c-2.52-2.25-5-4.55-7.54-6.75a18,18,0,0,0-4.17-3.08,11.91,11.91,0,0,0-1.1-1A110.88,110.88,0,0,0,163.25,12,113.92,113.92,0,0,0,105.23.2a4.59,4.59,0,0,0-2.39.45h0c-4.35-.15-8.55.81-12.77,1.63a31.07,31.07,0,0,0-7.68,2A50.69,50.69,0,0,0,69.61,8.66a1.37,1.37,0,0,0-1.27.55,1.75,1.75,0,0,0-1.46.63h0A5,5,0,0,0,64,11.14h0a23.13,23.13,0,0,0-6.82,3.56,1.52,1.52,0,0,0-1.29.72h0a27.27,27.27,0,0,0-6.81,4.29,33.58,33.58,0,0,0-7.44,5.52h0A24.3,24.3,0,0,0,36,30.1h0a34,34,0,0,0-6.69,6.75h0a.78.78,0,0,0-.6.65.76.76,0,0,0-.58.64.73.73,0,0,0-.58.66l.57-.64h0a5,5,0,0,1-.58.64h0a4.84,4.84,0,0,0-.56.63l0,0A1.74,1.74,0,0,0,26,40.56h0a28.1,28.1,0,0,0-4.77,6.19,20.25,20.25,0,0,0-3.74,5.51h0a22.55,22.55,0,0,0-3.64,6.16,27.7,27.7,0,0,0-3.71,7.39,16.64,16.64,0,0,0-2.36,5.53,15.85,15.85,0,0,0-1.95,5.48h0a2.27,2.27,0,0,0-.62,1.88,21.42,21.42,0,0,0-1.87,6.74,3.41,3.41,0,0,0-.58,2.48,17.06,17.06,0,0,0-1.18,6.15A44.13,44.13,0,0,0,.37,105.75a30.47,30.47,0,0,0-.09,8.74A8.13,8.13,0,0,0,.37,118a18.17,18.17,0,0,0,.4,5.84.76.76,0,0,0,.15.48.26.26,0,0,0,0,.43,9.12,9.12,0,0,0,.6,4.42h0a19.64,19.64,0,0,0,1.26,6.69,21.39,21.39,0,0,0,1.79,7h0a41.88,41.88,0,0,0,3.76,10.86,42.61,42.61,0,0,0,4.89,10.4,1.35,1.35,0,0,0,.65,1.23,1.33,1.33,0,0,0,.67,1.2,1.25,1.25,0,0,0,.65,1.15,28,28,0,0,0,4.31,6.81h0a.7.7,0,0,0,.48.72,1.32,1.32,0,0,0,.76,1.07,57.44,57.44,0,0,0,9.13,11.19.8.8,0,0,0,.61.67.79.79,0,0,0,.6.64.81.81,0,0,0,.6.63.82.82,0,0,0,.61.62.85.85,0,0,0,.62.62,1.07,1.07,0,0,0,.72.71.81.81,0,0,0-.68-.75h0a.65.65,0,0,0-.61-.6h0a.66.66,0,0,0-.61-.62h0a.66.66,0,0,0-.6-.63h0a.71.71,0,0,0-.33-.52.66.66,0,0,1,.33.53.63.63,0,0,1,.61.63.59.59,0,0,1,.61.62.59.59,0,0,1,.62.6c.44,0,.62.34.68.76a36.67,36.67,0,0,0,5.45,5.19,25,25,0,0,0,5,3.84.76.76,0,0,0,.74.56A10.56,10.56,0,0,0,46,202a111.88,111.88,0,0,0,45.29,19.69,55,55,0,0,0,12.19,1.43,5,5,0,0,0,1.17.33,105,105,0,0,0,22.06-.77c1.39-.22,2.89-.06,4.17-.84a5.08,5.08,0,0,0,3.13-.61,3.5,3.5,0,0,0,2.51-.58h0c2,0,3.78-.77,5.61-1.33a35.71,35.71,0,0,0,8-3,1.67,1.67,0,0,0,1.49-.61h0l.21,0,.13-.16a27.24,27.24,0,0,0,7.45-3.58,1.36,1.36,0,0,0,1.24-.67,37,37,0,0,0,9.28-6.06.83.83,0,0,0,.75-.57,36.28,36.28,0,0,0,8.57-7.92.91.91,0,0,0,.66-.75,14.63,14.63,0,0,0,3.57-4.44,1.3,1.3,0,0,0,.75-1.07.68.68,0,0,0,.48-.71l-.48.67h0c.09-.29.34-.46.51-.68l0,0a20.85,20.85,0,0,0,3.77-6.6,16.14,16.14,0,0,0,2.49-6.1,2.37,2.37,0,0,0,.63-2,10.52,10.52,0,0,0,1.2-4.85,6.49,6.49,0,0,0,.6-3.78.26.26,0,0,0,0-.42,4.63,4.63,0,0,0,.48-2.63C193.89,160.69,193.88,157.88,193.85,155.07ZM76.36,78a1,1,0,0,1-.13.25,1,1,0,0,0,.13-.25Zm11,8.32a.65.65,0,0,1,.38-.14h0A.91.91,0,0,0,87.36,86.34Zm76.72-41.29h0a1.17,1.17,0,0,1,.25.14Zm-4,136.67a.76.76,0,0,1-.27.05h0A1.09,1.09,0,0,0,160.06,181.72ZM30,187.53h0a.7.7,0,0,1,.29.13A.7.7,0,0,0,30,187.53Z"/><path class="cls-1" d="M79.45,75.62l.71-.53A.69.69,0,0,0,79.45,75.62Z"/><path class="cls-1" d="M27,39.43l.56-.63A.65.65,0,0,0,27,39.43Z"/></g></g></svg>