<svg xmlns="http://www.w3.org/2000/svg" viewBox="0 0 313.2 361.4"><defs><style>.cls-1{fill:#fff;}</style></defs><g id="Livello_2" data-name="Livello 2"><g id="Livello_1-2" data-name="Livello 1"><path class="cls-1" d="M313.15,250.5a14.29,14.29,0,0,0-.86-5.25c.12-2.07.19-4.12-.92-6a7.59,7.59,0,0,0-1-5c-.11-1-.21-1.93-.33-2.9,0-.4-.29-.64-.66-.55s-.7.22-.78.43a13.41,13.41,0,0,0-.48,1.89h0a2.16,2.16,0,0,0-.92,2.08,223,223,0,0,1-1.88,4.05h0a2.12,2.12,0,0,0-1,2v0a2.15,2.15,0,0,0-1,2h0a2.16,2.16,0,0,0-1,2l-9.18,14.65a1.3,1.3,0,0,0-.88,1.2q-4.47,5.43-8.93,10.87a1.17,1.17,0,0,0-1,1,1.13,1.13,0,0,0-1,1l1-1h0l1-1h0a3.81,3.81,0,0,1-1,1c-.29.37-.66.65-1,1a96.22,96.22,0,0,0-9.22,8.84l-12.82,9.91a1.28,1.28,0,0,0-1.21.77,2.43,2.43,0,0,0-1.88,1.26,70.63,70.63,0,0,0-10.08,5.9c-1,.41-2.13.75-3.14,1.25a148.7,148.7,0,0,1-14.35,6.13c-1.19.44-2.59.5-3.52,1.56h0a17.75,17.75,0,0,0-2.44.41,136.13,136.13,0,0,1-49.78,5.8c-2.15-.14-4.31-.13-6.47-.19-2.16-1-4.54-.81-6.81-1.2a137.37,137.37,0,0,1-60.84-26.35c-1-.79-2.17-1.47-3.26-2.2a19.85,19.85,0,0,0-1.67-1.76,136.54,136.54,0,0,1-20.46-21.37A23.06,23.06,0,0,0,71.71,261l-10.1-15.81h0a2.2,2.2,0,0,0-1.06-2q-3.33-7.49-6.67-15h0q-2.19-6.89-4.39-13.79h0l-3-14.88h0a39.78,39.78,0,0,0-.53-7.39c-.59-6.09-.93-5.46,4.7-5.5,3.29,0,6.65.43,9.85-.82,2.37-.14,4.79,0,7-1.14,1.44.06,2.89.11,4.1-.89a14.21,14.21,0,0,0,6.93-2,3.54,3.54,0,0,0,3-1.06,24.94,24.94,0,0,0,9-3.86,2.23,2.23,0,0,0,2-1,2.14,2.14,0,0,0,2-1.06,41.76,41.76,0,0,0,11-6.67,2.38,2.38,0,0,0,1.9-1.31,1.16,1.16,0,0,0,1.2-.86,65.54,65.54,0,0,0,12.87-9.78,74.52,74.52,0,0,0,12-10,30.1,30.1,0,0,0,7-5.93,1.43,1.43,0,0,0,1.21-1h0a84.72,84.72,0,0,0,10.84-8.8l14-9.88q5.46-3,10.91-6.07a2.5,2.5,0,0,0,2.16-1h0l15.73-5.15c1.76,0,3.54.1,5.11-.9l0,0,12.86-.28c.11,0,.24-.17.32-.28a2.28,2.28,0,0,0,.2-.45c-4.42-7.91-17.86-12.49-27.54-10.19l-1,.1c-2.11-.12-4.2-.17-6.11,1a47.81,47.81,0,0,0-15.89,5,2.28,2.28,0,0,0-2.21.93,43.37,43.37,0,0,0-12.16,5.86h0a77.1,77.1,0,0,0-16.57,10.1h0a1.14,1.14,0,0,0-1.17.79,2.15,2.15,0,0,0-1.73,1.23l-.07,0a13.91,13.91,0,0,1-1.16.86,13,13,0,0,0-5,3.83A1.6,1.6,0,0,0,122,127h0a29.33,29.33,0,0,0-6.8,5.76,5.09,5.09,0,0,0-2.75,2.31A92.2,92.2,0,0,0,101.38,144l-12.95,8.82a2.21,2.21,0,0,0-2,1.14l-12,5.79a3.84,3.84,0,0,0-3,1.08,4,4,0,0,0-3.15,1,26,26,0,0,0-2.94.41,56,56,0,0,1-18.73,1.48h.16c.1-1.13.13-2.27.29-3.38.5-3.37,1-6.74,1.57-10.1a61.12,61.12,0,0,0,3-10.84,63.43,63.43,0,0,0,4-10.9,17.92,17.92,0,0,0,2.85-6.27,2.18,2.18,0,0,0,1-2v0a49.73,49.73,0,0,0,5-9,2.16,2.16,0,0,0,1.11-1.85,86.88,86.88,0,0,0,6.9-10,65.15,65.15,0,0,0,7.09-8.64,1.43,1.43,0,0,0,1-1.15l9.95-9.82a1.38,1.38,0,0,0,1.1-1,1.32,1.32,0,0,0,1.08-1l11.79-9h0a5.18,5.18,0,0,0,3-2,40.65,40.65,0,0,0,8-4.75,2.64,2.64,0,0,0,2-1.13,2.3,2.3,0,0,0,2-1h0l13.89-6.12a2.14,2.14,0,0,0,2.08-.8,3.75,3.75,0,0,0,3-1h0l14.85-4c1.76,0,3.51,0,5-1h0c3.91-.38,7.82-.83,11.73-1.11,5.07-.36,10.14-.58,15.21-.86a1.68,1.68,0,0,0,1.6,0c3.39,1.07,6.89.81,10.37.85l1.71.14c2,1.06,4.17.94,6.32,1h0l.27.19.3-.13c1.33,1,2.87.94,4.41.9l.28.2.33-.1a4.28,4.28,0,0,0,3.37.82l.35.21.41-.07a4,4,0,0,0,3.24.87h0l.3.22.36-.08a4.33,4.33,0,0,0,3.29,1,3.77,3.77,0,0,0,3,1,3.8,3.8,0,0,0,3,1,2.11,2.11,0,0,0,2,.79h0l.31.24.4,0a2.58,2.58,0,0,0,2.28.92,2.17,2.17,0,0,0,2,.86l.27.25.37,0a2.92,2.92,0,0,0,2.34,1c1,.57,1.93,1.22,2.95,1.72a135.5,135.5,0,0,1,21.62,13A22,22,0,0,0,265,72.8h0l.33,1.79a12.46,12.46,0,0,0-1.08,5.93,76.7,76.7,0,0,0-3,11.86h0a3.74,3.74,0,0,0-1,3,69.34,69.34,0,0,0-4.15,10.87h0q-3.48,6.94-7,13.9Q244.58,127.09,240,134l-10,11.87v0l-14,12.86h0c-5,3.37-10.07,6.72-15.09,10.1-1.47,1-3.26,1.52-4.48,2.91a2.2,2.2,0,0,0-2,1h0a2.15,2.15,0,0,0-1.94,1c-3.62,1.54-7.23,3.11-10.86,4.62-2.72,1.13-5.46,2.2-8.19,3.3a18.65,18.65,0,0,0-2.39.43c-5.47,1.73-11.06,2.94-16.66,4.12-2.06.43-4.28.13-6.2,1.26h0c-2,.09-3.95.09-5.91.29a115,115,0,0,1-16.8.55c-3.95-.19-7.89-.55-11.84-.84a5.46,5.46,0,0,0-3.63-.84,1.07,1.07,0,0,0-.78.36c-.32.49.05.91.37,1.25a3.27,3.27,0,0,0,.79.48,14.79,14.79,0,0,0,4.1,3.9,3.43,3.43,0,0,0,.49.83c9.79,9.41,21,16.6,34,20.7a69,69,0,0,0,28.42,3.24c2.87.1,5.75.38,8.46-.89h0a1.58,1.58,0,0,0,1.54-.16,22.78,22.78,0,0,0,9-1.93,3.59,3.59,0,0,0,3.06-.87,3.67,3.67,0,0,0,3-1,3.67,3.67,0,0,0,3-1,3.59,3.59,0,0,0,2.95-1.11,64.77,64.77,0,0,0,18-8.83,68.53,68.53,0,0,0,16-10.94,1.26,1.26,0,0,0,1.16-.93h0a32.16,32.16,0,0,0,7.93-6.68c1.69-.79,2.83-2.25,4.13-3.5a176.93,176.93,0,0,0,15.67-17.18,17.28,17.28,0,0,0,3.09-4.43,40.52,40.52,0,0,0,7-9.87h0a56,56,0,0,0,7.95-13,69.51,69.51,0,0,0,8-16,46.79,46.79,0,0,0,5-12.78,28.66,28.66,0,0,0,3.08-9.66,36.54,36.54,0,0,0,3-12h0c1.05-1.52,1-3.26,1-5h0a51.75,51.75,0,0,0,2-15.89h0c1-2.18.54-4.53.77-6.8a4.9,4.9,0,0,0-1.83-4.35c-4.06-3.64-8-7.36-12.18-10.91-2.11-1.82-4.13-3.81-6.74-5a18.64,18.64,0,0,0-1.77-1.68,178.51,178.51,0,0,0-25.93-15.78A184.11,184.11,0,0,0,170,.32c-1.32.07-2.68,0-3.87.73h0c-7-.24-13.82,1.3-20.63,2.63-4.19.81-8.48,1.38-12.4,3.25A82.18,82.18,0,0,0,112.46,14a2.26,2.26,0,0,0-2.07.88,2.83,2.83,0,0,0-2.35,1h0a8.14,8.14,0,0,0-4.6,2.1h0a37.59,37.59,0,0,0-11,5.75,2.44,2.44,0,0,0-2.08,1.15h0a44.77,44.77,0,0,0-11,6.94,54.14,54.14,0,0,0-12,8.92h0a39.15,39.15,0,0,0-9.1,7.87h0A54.68,54.68,0,0,0,47.4,59.52h0a1.25,1.25,0,0,0-1,1,1.24,1.24,0,0,0-.94,1,1.15,1.15,0,0,0-.93,1.05l.92-1h0a6.1,6.1,0,0,1-.93,1h0a7.83,7.83,0,0,0-.9,1l0,.07a2.81,2.81,0,0,0-1.53,1.77h0a45.59,45.59,0,0,0-7.71,10,33.12,33.12,0,0,0-6.05,8.9h0a36.64,36.64,0,0,0-5.88,10,45,45,0,0,0-6,11.94,26.85,26.85,0,0,0-3.82,8.94,25.91,25.91,0,0,0-3.15,8.85h0a3.61,3.61,0,0,0-1,3,34.38,34.38,0,0,0-3,10.88c-1,1.17-1,2.6-.93,4A27,27,0,0,0,2.62,152a70.42,70.42,0,0,0-2,18.86c-.56,4.7-1,9.41-.16,14.13a13,13,0,0,0,.16,5.72c-.12,3.17-.29,6.35.63,9.43a1.32,1.32,0,0,0,.24.78.42.42,0,0,0,.08.69c-.08,2.44-.13,4.87,1,7.14h0a31.86,31.86,0,0,0,2,10.8,34.76,34.76,0,0,0,2.89,11.28h0a67.41,67.41,0,0,0,6.08,17.55,68.54,68.54,0,0,0,7.88,16.8,2.19,2.19,0,0,0,1.06,2,2.14,2.14,0,0,0,1.08,1.93,2,2,0,0,0,1.05,1.86,45.37,45.37,0,0,0,7,11h0a1.12,1.12,0,0,0,.78,1.16,2.13,2.13,0,0,0,1.23,1.74,93.42,93.42,0,0,0,14.75,18.07,1.29,1.29,0,0,0,1,1.09,1.29,1.29,0,0,0,1,1,1.33,1.33,0,0,0,1,1,1.34,1.34,0,0,0,1,1,1.31,1.31,0,0,0,1,1,1.7,1.7,0,0,0,1.15,1.15A1.3,1.3,0,0,0,53.31,308h0a1.06,1.06,0,0,0-1-1h0a1.06,1.06,0,0,0-1-1h0a1.1,1.1,0,0,0-1-1h0a1.15,1.15,0,0,0-.53-.85,1.08,1.08,0,0,1,.53.85,1,1,0,0,1,1,1,1,1,0,0,1,1,1,1,1,0,0,1,1,1c.71.08,1,.55,1.09,1.22,2.5,3.25,5.74,5.74,8.82,8.39,2.57,2.21,5,4.66,8.08,6.2a1.25,1.25,0,0,0,1.2.91,18.42,18.42,0,0,0,1.77,1.66,180.61,180.61,0,0,0,73.15,31.8c6.49,1.25,13,2.55,19.7,2.32A9.46,9.46,0,0,0,169,361c11.92.64,23.82.62,35.64-1.24,2.26-.36,4.67-.11,6.75-1.36a8.12,8.12,0,0,0,5-1c1.43,0,2.87.07,4.06-.94h0c3.2,0,6.11-1.24,9.07-2.16,4.37-1.34,8.86-2.41,12.84-4.78a2.71,2.71,0,0,0,2.41-1h0l.33.07.21-.27a43.84,43.84,0,0,0,12-5.78,2.16,2.16,0,0,0,2-1.08,60.18,60.18,0,0,0,15-9.79,1.33,1.33,0,0,0,1.21-.93A58.42,58.42,0,0,0,289.44,318a1.51,1.51,0,0,0,1.06-1.21,23.45,23.45,0,0,0,5.77-7.18,2.07,2.07,0,0,0,1.21-1.73,1.11,1.11,0,0,0,.78-1.15l-.78,1.09,0,0c.14-.47.54-.74.82-1.11l0,0a33.26,33.26,0,0,0,6.1-10.67,25.79,25.79,0,0,0,4-9.84,3.88,3.88,0,0,0,1-3.21,16.67,16.67,0,0,0,1.93-7.82c1.13-1.91,1.08-4,1-6.12a.42.42,0,0,0,.07-.68,7.64,7.64,0,0,0,.78-4.24Q313.24,257.3,313.15,250.5ZM123.36,126a1.76,1.76,0,0,1-.21.41,2.25,2.25,0,0,0,.21-.41Zm17.77,13.44a1,1,0,0,1,.61-.22h0A1.38,1.38,0,0,0,141.13,139.47ZM265.05,72.78h0a1.94,1.94,0,0,1,.41.22Zm-6.49,220.77a.93.93,0,0,1-.42.09h0A1.43,1.43,0,0,0,258.56,293.55ZM48.39,302.94h0a1.13,1.13,0,0,1,.47.21A1.27,1.27,0,0,0,48.39,302.94Z"/><path class="cls-1" d="M128.34,122.16l1.16-.86A1.14,1.14,0,0,0,128.34,122.16Z"/><path class="cls-1" d="M43.65,63.69l.9-1A1,1,0,0,0,43.65,63.69Z"/></g></g></svg>