<svg xmlns="http://www.w3.org/2000/svg" viewBox="0 0 364.99 364.99"><defs><style>.cls-1{fill:#f34336;}.cls-2{fill:#fefefe;}</style></defs><g id="Livello_2" data-name="Livello 2"><g id="Livello_1-2" data-name="Livello 1"><path class="cls-1" d="M.07,323.67V312.29C.56,302.86,6,296.37,12.4,290q51.3-51,102.29-102.22c.84-.84,1.65-1.7,2.5-2.52,1.7-1.65,1.7-3.25,0-4.89-.85-.83-1.66-1.69-2.5-2.53Q63.57,126.74,12.4,75.66C6,69.33.56,62.84.07,53.41V42C.32,32.5,5.69,25.86,12.36,19.82c3.94-3.57,7.58-7.49,11.36-11.25,1.09-1.09,2.3-2.05,3.45-3.06,4.92-4.29,11-4.64,17-5.06A55.8,55.8,0,0,1,58,1.34C63,2.25,67,5.26,70.59,8.83q47.66,47.63,95.28,95.28,6.28,6.28,12.57,12.57c3.43,3.4,4,3.39,7.47-.08l70.38-70.39c11.82-11.82,23.94-23.35,35.35-35.55C299.92,1.8,309.94,0,321.2.42c9,.31,16,4,21.85,10.57a144.14,144.14,0,0,0,11.06,11c6.46,5.85,10.4,12.77,10.36,21.67,0,7.08.53,14.23-3.18,20.76a38.05,38.05,0,0,1-6.36,8q-52.79,52.8-105.58,105.59c-4.75,4.75-4.74,4.76,0,9.48,35,34.94,69.73,70,104.93,104.73,8.73,8.59,10.75,18.5,10.21,29.91-.42,8.84-4.11,15.71-10.51,21.56-4.54,4.15-8.76,8.66-13.1,13s-9.23,7.24-15.53,7.56c-5.21.27-10.42.27-15.62.07-6.76-.26-12.07-3.56-16.74-8.24q-36.41-36.51-72.89-72.92-16.71-16.73-33.43-33.44c-4.47-4.47-4.58-4.47-9-.07q-52.54,52.53-105,105.15c-6.61,6.66-13.94,10.34-23.37,9.65-3.77-.27-7.56,0-11.35-.29a20.72,20.72,0,0,1-13.19-6.18Q15.57,349.2,6.65,340C3.29,336.53,1,332.45.77,327.44A9.81,9.81,0,0,0,.07,323.67Z"/><path class="cls-2" d="M.07,323.67c1.23,1.26,1.15,3,1.67,4.54,3.43,10,24.42,31.77,34.68,34.68,11.3,3.2,22.3,2.34,31.62-6,1.32-1.18,2.58-2.45,3.84-3.7q53.81-53.81,107.55-107.67c2.29-2.3,3.33-2,5.46.08Q239,299.87,293.19,354c3.9,3.9,8.06,7.55,13.47,8.91,11.67,2.93,22.85,2.35,32.16-6.49,5.75-5.47,11.41-11.06,16.83-16.86a31.57,31.57,0,0,0,.46-42.7c-1.18-1.33-2.45-2.58-3.7-3.83Q298.73,239.35,245,185.73c-2.23-2.22-2.44-3.36-.08-5.71Q299.37,125.84,353.6,71.46c11-11,13.6-25.17,7.18-38a27.78,27.78,0,0,0-5-7.27c-5.59-5.65-11.08-11.4-16.87-16.83a31.56,31.56,0,0,0-42.69-.5c-1.25,1.09-2.41,2.28-3.59,3.45Q238.93,66,185.3,119.7c-2.39,2.4-3.57,2.81-6.23.14Q124.93,65.36,70.53,11.15C59.66.3,45.24-2.23,32.45,4.31a28.19,28.19,0,0,0-7,4.88C19.77,14.86,14,20.52,8.41,26.29A29.87,29.87,0,0,0,1.33,38.86C1,39.93,1.22,41.27.07,42,.07,29,.16,16,0,2.91,0,.47.48,0,2.92,0Q173.24.12,343.56.07c6.52,0,13,.06,19.56,0,1.53,0,2.09.29,1.79,1.83a7.47,7.47,0,0,0,0,1.42q0,179.22.06,358.45c0,2.67-.6,3.27-3.26,3.27q-179.22-.12-358.43,0c-2.66,0-3.3-.6-3.27-3.27C.16,349,.07,336.36.07,323.67Z"/><path class="cls-2" d="M.07,53.41c.68.25.68.88.82,1.44,1.6,6.65,5.19,12.07,10,16.87Q65.11,125.84,119.31,180c2.3,2.28,2.29,3.43,0,5.71Q69.54,235.24,20,285C11.87,293,3,300.49.07,312.29Z"/></g></g></svg>